<mxfile host="app.diagrams.net" modified="2021-12-09T13:04:10.452Z" agent="5.0 (Macintosh; Intel Mac OS X 10_15_7) AppleWebKit/537.36 (KHTML, like Gecko) Chrome/96.0.4664.93 Safari/537.36" etag="Nx-ClH07Iv1JG-TuVlH8" version="15.9.4" type="github">
  <diagram id="6a731a19-8d31-9384-78a2-239565b7b9f0" name="Page-1">
    <mxGraphModel dx="996" dy="558" grid="1" gridSize="10" guides="1" tooltips="1" connect="1" arrows="1" fold="1" page="1" pageScale="1" pageWidth="1169" pageHeight="827" background="#003469" math="0" shadow="0">
      <root>
        <mxCell id="0" />
        <mxCell id="1" parent="0" />
        <mxCell id="2019" value="" style="rounded=1;whiteSpace=wrap;html=1;dashed=1;strokeColor=none;strokeWidth=2;fillColor=#E6E6E6;fontFamily=Verdana;fontSize=12;fontColor=#00BEF2" parent="1" vertex="1">
          <mxGeometry x="40" y="120" width="165" height="520" as="geometry" />
        </mxCell>
        <mxCell id="2020" value="" style="rounded=1;whiteSpace=wrap;html=1;dashed=1;strokeColor=none;strokeWidth=2;fillColor=#E6E6E6;fontFamily=Verdana;fontSize=12;fontColor=#00BEF2" parent="1" vertex="1">
          <mxGeometry x="220" y="120" width="165" height="560" as="geometry" />
        </mxCell>
        <mxCell id="2021" value="" style="rounded=1;whiteSpace=wrap;html=1;dashed=1;strokeColor=none;strokeWidth=2;fillColor=#E6E6E6;fontFamily=Verdana;fontSize=12;fontColor=#00BEF2" parent="1" vertex="1">
          <mxGeometry x="400" y="120" width="165" height="530" as="geometry" />
        </mxCell>
        <mxCell id="2022" value="" style="rounded=1;whiteSpace=wrap;html=1;dashed=1;strokeColor=none;strokeWidth=2;fillColor=#E6E6E6;fontFamily=Verdana;fontSize=12;fontColor=#00BEF2" parent="1" vertex="1">
          <mxGeometry x="580" y="120" width="240" height="530" as="geometry" />
        </mxCell>
        <mxCell id="2025" value="用户层" style="whiteSpace=wrap;html=1;dashed=1;strokeColor=none;strokeWidth=2;fillColor=#3399FF;fontFamily=Helvetica;fontSize=18;fontColor=#FFFFFF;fontStyle=1" parent="1" vertex="1">
          <mxGeometry x="40" y="120" width="165" height="60" as="geometry" />
        </mxCell>
        <mxCell id="2026" value="接口层" style="whiteSpace=wrap;html=1;dashed=1;strokeColor=none;strokeWidth=2;fillColor=#3399FF;fontFamily=Helvetica;fontSize=18;fontColor=#FFFFFF;fontStyle=1" parent="1" vertex="1">
          <mxGeometry x="220" y="120" width="165" height="60" as="geometry" />
        </mxCell>
        <mxCell id="2027" value="服务层" style="whiteSpace=wrap;html=1;dashed=1;strokeColor=none;strokeWidth=2;fillColor=#3399FF;fontFamily=Helvetica;fontSize=18;fontColor=#FFFFFF;fontStyle=1" parent="1" vertex="1">
          <mxGeometry x="400" y="120" width="165" height="60" as="geometry" />
        </mxCell>
        <mxCell id="2028" value="数据层" style="whiteSpace=wrap;html=1;dashed=1;strokeColor=none;strokeWidth=2;fillColor=#3399FF;fontFamily=Helvetica;fontSize=18;fontColor=#FFFFFF;fontStyle=1" parent="1" vertex="1">
          <mxGeometry x="580" y="120" width="240" height="60" as="geometry" />
        </mxCell>
        <mxCell id="2031" value="" style="shape=mxgraph.arrows.two_way_arrow_horizontal;html=1;verticalLabelPosition=bottom;verticalAlign=top;strokeWidth=2;strokeColor=none;dashed=1;fillColor=#FFFFFF;fontFamily=Verdana;fontSize=12;fontColor=#00BEF2" parent="1" vertex="1">
          <mxGeometry x="180" y="131" width="67" height="39" as="geometry" />
        </mxCell>
        <mxCell id="2032" value="" style="shape=mxgraph.arrows.two_way_arrow_horizontal;html=1;verticalLabelPosition=bottom;verticalAlign=top;strokeWidth=2;strokeColor=none;dashed=1;fillColor=#FFFFFF;fontFamily=Verdana;fontSize=12;fontColor=#00BEF2" parent="1" vertex="1">
          <mxGeometry x="360" y="131" width="67" height="39" as="geometry" />
        </mxCell>
        <mxCell id="2033" value="" style="shape=mxgraph.arrows.two_way_arrow_horizontal;html=1;verticalLabelPosition=bottom;verticalAlign=top;strokeWidth=2;strokeColor=none;dashed=1;fillColor=#FFFFFF;fontFamily=Verdana;fontSize=12;fontColor=#00BEF2" parent="1" vertex="1">
          <mxGeometry x="540" y="131" width="67" height="39" as="geometry" />
        </mxCell>
        <mxCell id="2040" value="二手商品发布" style="verticalLabelPosition=bottom;html=1;verticalAlign=top;strokeColor=none;fillColor=#3399FF;shape=mxgraph.azure.mobile_services;dashed=1;fontFamily=Helvetica;fontSize=14;fontColor=#004C99" parent="1" vertex="1">
          <mxGeometry x="107" y="250" width="32.5" height="50" as="geometry" />
        </mxCell>
        <mxCell id="2068" value="二手交易业务服务" style="rounded=1;whiteSpace=wrap;html=1;dashed=1;strokeColor=none;strokeWidth=2;fillColor=#FFFFFF;fontFamily=Helvetica;fontSize=14;fontColor=#FFB366;opacity=75;verticalAlign=top;fontStyle=1" parent="1" vertex="1">
          <mxGeometry x="233" y="210" width="140" height="450" as="geometry" />
        </mxCell>
        <mxCell id="2075" value="" style="arrow;html=1;endArrow=block;endFill=1;strokeColor=none;strokeWidth=4;fontFamily=Helvetica;fontSize=36;fontColor=#FFB366;fillColor=#FFB366;" parent="1" edge="1">
          <mxGeometry width="100" height="100" relative="1" as="geometry">
            <mxPoint x="167" y="283" as="sourcePoint" />
            <mxPoint x="247" y="283" as="targetPoint" />
          </mxGeometry>
        </mxCell>
        <mxCell id="GvNoBDFtbwsnx0B9apl6-2085" value="二手商品搜索" style="verticalLabelPosition=bottom;html=1;verticalAlign=top;strokeColor=none;fillColor=#3399FF;shape=mxgraph.azure.mobile_services;dashed=1;fontFamily=Helvetica;fontSize=14;fontColor=#004C99" parent="1" vertex="1">
          <mxGeometry x="100" y="496" width="32.5" height="50" as="geometry" />
        </mxCell>
        <mxCell id="GvNoBDFtbwsnx0B9apl6-2088" value="二手商品发布接口" style="shape=image;verticalLabelPosition=bottom;labelBackgroundColor=#ffffff;verticalAlign=top;aspect=fixed;imageAspect=0;image=data:image/svg+xml,PHN2ZyB4bWxuczpjYz0iaHR0cDovL2NyZWF0aXZlY29tbW9ucy5vcmcvbnMjIiB4bWxuczpkYz0iaHR0cDovL3B1cmwub3JnL2RjL2VsZW1lbnRzLzEuMS8iIHhtbG5zOmlua3NjYXBlPSJodHRwOi8vd3d3Lmlua3NjYXBlLm9yZy9uYW1lc3BhY2VzL2lua3NjYXBlIiB4bWxuczpyZGY9Imh0dHA6Ly93d3cudzMub3JnLzE5OTkvMDIvMjItcmRmLXN5bnRheC1ucyMiIHhtbG5zOnNvZGlwb2RpPSJodHRwOi8vc29kaXBvZGkuc291cmNlZm9yZ2UubmV0L0RURC9zb2RpcG9kaS0wLmR0ZCIgeG1sbnM6c3ZnPSJodHRwOi8vd3d3LnczLm9yZy8yMDAwL3N2ZyIgeG1sbnM9Imh0dHA6Ly93d3cudzMub3JnLzIwMDAvc3ZnIiB4bWxuczp4bGluaz0iaHR0cDovL3d3dy53My5vcmcvMTk5OS94bGluayIgdmVyc2lvbj0iMS4xIiBpZD0ic3ZnNTk4ODkiIGlua3NjYXBlOnZlcnNpb249IjAuOTIuMyAoMjQwNTU0NiwgMjAxOC0wMy0xMSkiIHNvZGlwb2RpOmRvY25hbWU9ImF6dXJlX3BvcnRhbF9hcGlfbWFuYWdlbWVudF9zZXJ2aWNlcy5zdmciIHg9IjBweCIgeT0iMHB4IiB2aWV3Qm94PSIwIDAgMzAuOTcgMjUuNDEiIHN0eWxlPSJlbmFibGUtYmFja2dyb3VuZDpuZXcgMCAwIDMwLjk3IDI1LjQxOyIgeG1sOnNwYWNlPSJwcmVzZXJ2ZSI+JiN4YTs8c29kaXBvZGk6bmFtZWR2aWV3IGJvcmRlcmNvbG9yPSIjNjY2NjY2IiBib3JkZXJvcGFjaXR5PSIxIiBmaXQtbWFyZ2luLWJvdHRvbT0iMCIgZml0LW1hcmdpbi1sZWZ0PSIwIiBmaXQtbWFyZ2luLXJpZ2h0PSIwIiBmaXQtbWFyZ2luLXRvcD0iMCIgZ3JpZHRvbGVyYW5jZT0iMTAiIGd1aWRldG9sZXJhbmNlPSIxMCIgaWQ9Im5hbWVkdmlldzU5ODkxIiBpbmtzY2FwZTpjdXJyZW50LWxheWVyPSJzdmc1OTg4OSIgaW5rc2NhcGU6Y3g9IjI5LjQ3MTgyNyIgaW5rc2NhcGU6Y3k9IjE2LjEyMDc3NSIgaW5rc2NhcGU6cGFnZW9wYWNpdHk9IjAiIGlua3NjYXBlOnBhZ2VzaGFkb3c9IjIiIGlua3NjYXBlOndpbmRvdy1oZWlnaHQ9IjEwMTciIGlua3NjYXBlOndpbmRvdy1tYXhpbWl6ZWQ9IjEiIGlua3NjYXBlOndpbmRvdy13aWR0aD0iMTkyMCIgaW5rc2NhcGU6d2luZG93LXg9Ii04IiBpbmtzY2FwZTp3aW5kb3cteT0iLTgiIGlua3NjYXBlOnpvb209IjE4LjA5MzIyNiIgb2JqZWN0dG9sZXJhbmNlPSIxMCIgcGFnZWNvbG9yPSIjZmZmZmZmIiBzaG93Z3JpZD0iZmFsc2UiPiYjeGE7CTwvc29kaXBvZGk6bmFtZWR2aWV3PiYjeGE7PGcgaWQ9Imc1OTg4NyI+JiN4YTsJPHRpdGxlIGlkPSJ0aXRsZTU5ODcyIj5QYWdlLTE8L3RpdGxlPiYjeGE7CTxnIGlkPSJncm91cDQ0MzMtMSI+JiN4YTsJCTx0aXRsZSBpZD0idGl0bGU1OTg3NCI+QXp1cmUgUG9ydGFsIC0gQVBJIE1hbmFnZW1lbnQgU2VydmljZXM8L3RpdGxlPiYjeGE7CQk8ZyBpZD0ic2hhcGU0NDM0LTIiPiYjeGE7CQkJPHRpdGxlIGlkPSJ0aXRsZTU5ODc2Ij5BUEkgTWFuYWdlbWVudDwvdGl0bGU+JiN4YTsJCQk8cGF0aCBpZD0icGF0aDU5ODc4IiBpbmtzY2FwZTpjb25uZWN0b3ItY3VydmF0dXJlPSIwIiBzdHlsZT0iZmlsbDojNTlCNEQ5OyIgZD0iTTI3LjExLDEwLjY1YzAuMS0wLjM5LDAuMS0wLjU4LDAuMS0xLjE1ICAgICBjMC01LjM4LTQuNDQtOS41LTkuODUtOS41Yy0zLjg1LDAtNy40MywyLjAxLTguODcsNS41N2MtMC40OSwwLTAuODYtMC4yLTEuNDUtMC4yYy0zLjg2LDAtNy4wNCwzLjA3LTcuMDQsNyAgICAgYzAsMy44NCwzLjE4LDYuOSw3LjA0LDYuOWgzLjU4YzAuMDksMC40OSwwLjM3LDAuOTgsMC44NiwxLjM1YzEuMjYsMS4zNSwzLjM4LDEuMjUsNC42MywwczEuMjUtMy4zNiwwLTQuNiAgICAgYy0xLjI1LTEuMzQtMy4zNy0xLjM0LTQuNjMsMGMtMC4yOSwwLjI4LTAuNDksMC44Ny0wLjY3LDEuMjRsLTMuNjcsMC4xYy0yLjcsMC00LjkyLTIuMi00LjkyLTQuOTljMC0yLjc4LDIuMTItNC45OCw0LjkyLTQuOTggICAgIGMwLjQ5LDAsMS4wNiwwLjA5LDEuNjUsMC4xOWwxLjA0LDAuMjlsMC4zLTEuMDVjMS4wNi0zLjE3LDMuOTUtNS4yOCw3LjQzLTUuMjhjNC4yNCwwLDcuNzEsMy40NSw3LjcxLDcuNjcgICAgIGMwLDAuNjgtMC4wOSwxLjM0LTAuMjgsMi4wMWwtMC4zOSwxLjU0bDEuNjMtMC4xOWgwLjNjMS4yNSwwLDIuMjIsMS4wNSwyLjIyLDIuMmMwLDEuMTYtMC44NywyLjAyLTEuOTMsMi4yMWgtNS41ICAgICBjLTAuMi0xLjU0LTAuOTctMi44Ny0yLjAzLTMuOTNjLTEuMzQtMS4zNC0zLjE4LTIuMTEtNS4xMS0yLjExYy0xLjM0LDAtMi43LDAuMzgtMy43NiwxLjA2bDEuMTYsMS44MiAgICAgYzAuODctMC40OSwxLjczLTAuNjgsMi43LTAuNjhjMS4zNSwwLDIuNywwLjQ4LDMuNTcsMS41NGMwLjk2LDAuOTYsMS41NCwyLjIxLDEuNTQsMy41NGMwLDEuMzUtMC40OCwyLjY5LTEuNTQsMy41NSAgICAgYy0wLjk2LDEuMDYtMi4yMiwxLjU0LTMuNTcsMS41NGMtMC45NywwLTEuOTMtMC4yOS0yLjctMC44N2wtMS4xNiwxLjgzYzEuMTYsMC42NywyLjUsMS4xNCwzLjc2LDEuMTRjMS45MywwLDMuNzctMC42Niw1LjExLTIuMSAgICAgYzEuMTYtMS4xNSwxLjgzLTIuNTksMi4wMy00LjIyYzAuMjksMCw1LjYtMC4wOSw1LjYtMC4wOWgwLjA5YzIuMjMtMC4yLDMuOTYtMi4xMSwzLjk2LTQuNDIgICAgIEMzMC41OCwxMi43NiwyOS4xNCwxMS4wNCwyNy4xMSwxMC42NXoiLz4mI3hhOwkJPC9nPiYjeGE7CQk8ZyBpZD0ic2hhcGU0NDM1LTQiIHRyYW5zZm9ybT0idHJhbnNsYXRlKDEwLjI5ODMsLTMuNTYwNikiPiYjeGE7CQkJPHRpdGxlIGlkPSJ0aXRsZTU5ODgxIj5TaGVldC40NDM1PC90aXRsZT4mI3hhOwkJCTxwYXRoIGlkPSJwYXRoNTk4ODMiIGlua3NjYXBlOmNvbm5lY3Rvci1jdXJ2YXR1cmU9IjAiIHN0eWxlPSJmaWxsOiM2ODIxN0E7IiBkPSJNMCwyMS45NmMwLTEuOTEsMS41NS0zLjQ2LDMuNDUtMy40NiAgICAgYzEuOTMsMCwzLjQ2LDEuNTUsMy40NiwzLjQ2YzAsMS45Mi0xLjUzLDMuNDUtMy40NiwzLjQ1QzEuNTUsMjUuNDEsMCwyMy44OCwwLDIxLjk2eiIvPiYjeGE7CQk8L2c+JiN4YTsJPC9nPiYjeGE7PC9nPiYjeGE7PC9zdmc+;" parent="1" vertex="1">
          <mxGeometry x="277.5" y="260" width="50" height="40.32" as="geometry" />
        </mxCell>
        <mxCell id="GvNoBDFtbwsnx0B9apl6-2089" value="二手商品搜索接口" style="shape=image;verticalLabelPosition=bottom;labelBackgroundColor=#ffffff;verticalAlign=top;aspect=fixed;imageAspect=0;image=data:image/svg+xml,PHN2ZyB4bWxuczpjYz0iaHR0cDovL2NyZWF0aXZlY29tbW9ucy5vcmcvbnMjIiB4bWxuczpkYz0iaHR0cDovL3B1cmwub3JnL2RjL2VsZW1lbnRzLzEuMS8iIHhtbG5zOmlua3NjYXBlPSJodHRwOi8vd3d3Lmlua3NjYXBlLm9yZy9uYW1lc3BhY2VzL2lua3NjYXBlIiB4bWxuczpyZGY9Imh0dHA6Ly93d3cudzMub3JnLzE5OTkvMDIvMjItcmRmLXN5bnRheC1ucyMiIHhtbG5zOnNvZGlwb2RpPSJodHRwOi8vc29kaXBvZGkuc291cmNlZm9yZ2UubmV0L0RURC9zb2RpcG9kaS0wLmR0ZCIgeG1sbnM6c3ZnPSJodHRwOi8vd3d3LnczLm9yZy8yMDAwL3N2ZyIgeG1sbnM9Imh0dHA6Ly93d3cudzMub3JnLzIwMDAvc3ZnIiB4bWxuczp4bGluaz0iaHR0cDovL3d3dy53My5vcmcvMTk5OS94bGluayIgdmVyc2lvbj0iMS4xIiBpZD0ic3ZnNTk4ODkiIGlua3NjYXBlOnZlcnNpb249IjAuOTIuMyAoMjQwNTU0NiwgMjAxOC0wMy0xMSkiIHNvZGlwb2RpOmRvY25hbWU9ImF6dXJlX3BvcnRhbF9hcGlfbWFuYWdlbWVudF9zZXJ2aWNlcy5zdmciIHg9IjBweCIgeT0iMHB4IiB2aWV3Qm94PSIwIDAgMzAuOTcgMjUuNDEiIHN0eWxlPSJlbmFibGUtYmFja2dyb3VuZDpuZXcgMCAwIDMwLjk3IDI1LjQxOyIgeG1sOnNwYWNlPSJwcmVzZXJ2ZSI+JiN4YTs8c29kaXBvZGk6bmFtZWR2aWV3IGJvcmRlcmNvbG9yPSIjNjY2NjY2IiBib3JkZXJvcGFjaXR5PSIxIiBmaXQtbWFyZ2luLWJvdHRvbT0iMCIgZml0LW1hcmdpbi1sZWZ0PSIwIiBmaXQtbWFyZ2luLXJpZ2h0PSIwIiBmaXQtbWFyZ2luLXRvcD0iMCIgZ3JpZHRvbGVyYW5jZT0iMTAiIGd1aWRldG9sZXJhbmNlPSIxMCIgaWQ9Im5hbWVkdmlldzU5ODkxIiBpbmtzY2FwZTpjdXJyZW50LWxheWVyPSJzdmc1OTg4OSIgaW5rc2NhcGU6Y3g9IjI5LjQ3MTgyNyIgaW5rc2NhcGU6Y3k9IjE2LjEyMDc3NSIgaW5rc2NhcGU6cGFnZW9wYWNpdHk9IjAiIGlua3NjYXBlOnBhZ2VzaGFkb3c9IjIiIGlua3NjYXBlOndpbmRvdy1oZWlnaHQ9IjEwMTciIGlua3NjYXBlOndpbmRvdy1tYXhpbWl6ZWQ9IjEiIGlua3NjYXBlOndpbmRvdy13aWR0aD0iMTkyMCIgaW5rc2NhcGU6d2luZG93LXg9Ii04IiBpbmtzY2FwZTp3aW5kb3cteT0iLTgiIGlua3NjYXBlOnpvb209IjE4LjA5MzIyNiIgb2JqZWN0dG9sZXJhbmNlPSIxMCIgcGFnZWNvbG9yPSIjZmZmZmZmIiBzaG93Z3JpZD0iZmFsc2UiPiYjeGE7CTwvc29kaXBvZGk6bmFtZWR2aWV3PiYjeGE7PGcgaWQ9Imc1OTg4NyI+JiN4YTsJPHRpdGxlIGlkPSJ0aXRsZTU5ODcyIj5QYWdlLTE8L3RpdGxlPiYjeGE7CTxnIGlkPSJncm91cDQ0MzMtMSI+JiN4YTsJCTx0aXRsZSBpZD0idGl0bGU1OTg3NCI+QXp1cmUgUG9ydGFsIC0gQVBJIE1hbmFnZW1lbnQgU2VydmljZXM8L3RpdGxlPiYjeGE7CQk8ZyBpZD0ic2hhcGU0NDM0LTIiPiYjeGE7CQkJPHRpdGxlIGlkPSJ0aXRsZTU5ODc2Ij5BUEkgTWFuYWdlbWVudDwvdGl0bGU+JiN4YTsJCQk8cGF0aCBpZD0icGF0aDU5ODc4IiBpbmtzY2FwZTpjb25uZWN0b3ItY3VydmF0dXJlPSIwIiBzdHlsZT0iZmlsbDojNTlCNEQ5OyIgZD0iTTI3LjExLDEwLjY1YzAuMS0wLjM5LDAuMS0wLjU4LDAuMS0xLjE1ICAgICBjMC01LjM4LTQuNDQtOS41LTkuODUtOS41Yy0zLjg1LDAtNy40MywyLjAxLTguODcsNS41N2MtMC40OSwwLTAuODYtMC4yLTEuNDUtMC4yYy0zLjg2LDAtNy4wNCwzLjA3LTcuMDQsNyAgICAgYzAsMy44NCwzLjE4LDYuOSw3LjA0LDYuOWgzLjU4YzAuMDksMC40OSwwLjM3LDAuOTgsMC44NiwxLjM1YzEuMjYsMS4zNSwzLjM4LDEuMjUsNC42MywwczEuMjUtMy4zNiwwLTQuNiAgICAgYy0xLjI1LTEuMzQtMy4zNy0xLjM0LTQuNjMsMGMtMC4yOSwwLjI4LTAuNDksMC44Ny0wLjY3LDEuMjRsLTMuNjcsMC4xYy0yLjcsMC00LjkyLTIuMi00LjkyLTQuOTljMC0yLjc4LDIuMTItNC45OCw0LjkyLTQuOTggICAgIGMwLjQ5LDAsMS4wNiwwLjA5LDEuNjUsMC4xOWwxLjA0LDAuMjlsMC4zLTEuMDVjMS4wNi0zLjE3LDMuOTUtNS4yOCw3LjQzLTUuMjhjNC4yNCwwLDcuNzEsMy40NSw3LjcxLDcuNjcgICAgIGMwLDAuNjgtMC4wOSwxLjM0LTAuMjgsMi4wMWwtMC4zOSwxLjU0bDEuNjMtMC4xOWgwLjNjMS4yNSwwLDIuMjIsMS4wNSwyLjIyLDIuMmMwLDEuMTYtMC44NywyLjAyLTEuOTMsMi4yMWgtNS41ICAgICBjLTAuMi0xLjU0LTAuOTctMi44Ny0yLjAzLTMuOTNjLTEuMzQtMS4zNC0zLjE4LTIuMTEtNS4xMS0yLjExYy0xLjM0LDAtMi43LDAuMzgtMy43NiwxLjA2bDEuMTYsMS44MiAgICAgYzAuODctMC40OSwxLjczLTAuNjgsMi43LTAuNjhjMS4zNSwwLDIuNywwLjQ4LDMuNTcsMS41NGMwLjk2LDAuOTYsMS41NCwyLjIxLDEuNTQsMy41NGMwLDEuMzUtMC40OCwyLjY5LTEuNTQsMy41NSAgICAgYy0wLjk2LDEuMDYtMi4yMiwxLjU0LTMuNTcsMS41NGMtMC45NywwLTEuOTMtMC4yOS0yLjctMC44N2wtMS4xNiwxLjgzYzEuMTYsMC42NywyLjUsMS4xNCwzLjc2LDEuMTRjMS45MywwLDMuNzctMC42Niw1LjExLTIuMSAgICAgYzEuMTYtMS4xNSwxLjgzLTIuNTksMi4wMy00LjIyYzAuMjksMCw1LjYtMC4wOSw1LjYtMC4wOWgwLjA5YzIuMjMtMC4yLDMuOTYtMi4xMSwzLjk2LTQuNDIgICAgIEMzMC41OCwxMi43NiwyOS4xNCwxMS4wNCwyNy4xMSwxMC42NXoiLz4mI3hhOwkJPC9nPiYjeGE7CQk8ZyBpZD0ic2hhcGU0NDM1LTQiIHRyYW5zZm9ybT0idHJhbnNsYXRlKDEwLjI5ODMsLTMuNTYwNikiPiYjeGE7CQkJPHRpdGxlIGlkPSJ0aXRsZTU5ODgxIj5TaGVldC40NDM1PC90aXRsZT4mI3hhOwkJCTxwYXRoIGlkPSJwYXRoNTk4ODMiIGlua3NjYXBlOmNvbm5lY3Rvci1jdXJ2YXR1cmU9IjAiIHN0eWxlPSJmaWxsOiM2ODIxN0E7IiBkPSJNMCwyMS45NmMwLTEuOTEsMS41NS0zLjQ2LDMuNDUtMy40NiAgICAgYzEuOTMsMCwzLjQ2LDEuNTUsMy40NiwzLjQ2YzAsMS45Mi0xLjUzLDMuNDUtMy40NiwzLjQ1QzEuNTUsMjUuNDEsMCwyMy44OCwwLDIxLjk2eiIvPiYjeGE7CQk8L2c+JiN4YTsJPC9nPiYjeGE7PC9nPiYjeGE7PC9zdmc+;" parent="1" vertex="1">
          <mxGeometry x="281" y="490.84000000000003" width="50" height="40.32" as="geometry" />
        </mxCell>
        <mxCell id="GvNoBDFtbwsnx0B9apl6-2098" value="商品实时引擎" style="outlineConnect=0;dashed=0;verticalLabelPosition=bottom;verticalAlign=top;align=center;html=1;shape=mxgraph.aws3.elasticsearch_service;fillColor=#F58534;gradientColor=none;" parent="1" vertex="1">
          <mxGeometry x="660" y="440.5" width="50" height="65.5" as="geometry" />
        </mxCell>
        <mxCell id="GvNoBDFtbwsnx0B9apl6-2104" value="二手业务基础服务" style="aspect=fixed;perimeter=ellipsePerimeter;html=1;align=center;shadow=0;dashed=0;spacingTop=3;image;image=img/lib/active_directory/generic_server.svg;" parent="1" vertex="1">
          <mxGeometry x="460.8" y="474" width="39.2" height="70" as="geometry" />
        </mxCell>
        <mxCell id="GvNoBDFtbwsnx0B9apl6-2107" value="" style="arrow;html=1;endArrow=block;endFill=1;strokeColor=none;strokeWidth=4;fontFamily=Helvetica;fontSize=36;fontColor=#FFB366;fillColor=#FFB366;" parent="1" edge="1">
          <mxGeometry width="100" height="100" relative="1" as="geometry">
            <mxPoint x="247" y="530.92" as="sourcePoint" />
            <mxPoint x="169.94999999999982" y="530.84" as="targetPoint" />
          </mxGeometry>
        </mxCell>
        <mxCell id="GvNoBDFtbwsnx0B9apl6-2108" value="" style="arrow;html=1;endArrow=block;endFill=1;strokeColor=none;strokeWidth=4;fontFamily=Helvetica;fontSize=36;fontColor=#FFB366;fillColor=#FFB366;entryX=0.667;entryY=0.774;entryDx=0;entryDy=0;entryPerimeter=0;" parent="1" edge="1" target="2021">
          <mxGeometry width="100" height="100" relative="1" as="geometry">
            <mxPoint x="602.25" y="584.5799999999999" as="sourcePoint" />
            <mxPoint x="525.1999999999998" y="584.5" as="targetPoint" />
          </mxGeometry>
        </mxCell>
        <mxCell id="GvNoBDFtbwsnx0B9apl6-2109" value="离线hdfs" style="outlineConnect=0;dashed=0;verticalLabelPosition=bottom;verticalAlign=top;align=center;html=1;shape=mxgraph.aws3.hdfs_cluster;fillColor=#F58534;gradientColor=none;" parent="1" vertex="1">
          <mxGeometry x="732.75" y="544" width="61.5" height="63" as="geometry" />
        </mxCell>
        <mxCell id="GvNoBDFtbwsnx0B9apl6-2120" value="二手商品标签预测接口" style="shape=image;verticalLabelPosition=bottom;labelBackgroundColor=#ffffff;verticalAlign=top;aspect=fixed;imageAspect=0;image=data:image/svg+xml,PHN2ZyB4bWxuczpjYz0iaHR0cDovL2NyZWF0aXZlY29tbW9ucy5vcmcvbnMjIiB4bWxuczpkYz0iaHR0cDovL3B1cmwub3JnL2RjL2VsZW1lbnRzLzEuMS8iIHhtbG5zOmlua3NjYXBlPSJodHRwOi8vd3d3Lmlua3NjYXBlLm9yZy9uYW1lc3BhY2VzL2lua3NjYXBlIiB4bWxuczpyZGY9Imh0dHA6Ly93d3cudzMub3JnLzE5OTkvMDIvMjItcmRmLXN5bnRheC1ucyMiIHhtbG5zOnNvZGlwb2RpPSJodHRwOi8vc29kaXBvZGkuc291cmNlZm9yZ2UubmV0L0RURC9zb2RpcG9kaS0wLmR0ZCIgeG1sbnM6c3ZnPSJodHRwOi8vd3d3LnczLm9yZy8yMDAwL3N2ZyIgeG1sbnM9Imh0dHA6Ly93d3cudzMub3JnLzIwMDAvc3ZnIiB4bWxuczp4bGluaz0iaHR0cDovL3d3dy53My5vcmcvMTk5OS94bGluayIgdmVyc2lvbj0iMS4xIiBpZD0ic3ZnNTk4ODkiIGlua3NjYXBlOnZlcnNpb249IjAuOTIuMyAoMjQwNTU0NiwgMjAxOC0wMy0xMSkiIHNvZGlwb2RpOmRvY25hbWU9ImF6dXJlX3BvcnRhbF9hcGlfbWFuYWdlbWVudF9zZXJ2aWNlcy5zdmciIHg9IjBweCIgeT0iMHB4IiB2aWV3Qm94PSIwIDAgMzAuOTcgMjUuNDEiIHN0eWxlPSJlbmFibGUtYmFja2dyb3VuZDpuZXcgMCAwIDMwLjk3IDI1LjQxOyIgeG1sOnNwYWNlPSJwcmVzZXJ2ZSI+JiN4YTs8c29kaXBvZGk6bmFtZWR2aWV3IGJvcmRlcmNvbG9yPSIjNjY2NjY2IiBib3JkZXJvcGFjaXR5PSIxIiBmaXQtbWFyZ2luLWJvdHRvbT0iMCIgZml0LW1hcmdpbi1sZWZ0PSIwIiBmaXQtbWFyZ2luLXJpZ2h0PSIwIiBmaXQtbWFyZ2luLXRvcD0iMCIgZ3JpZHRvbGVyYW5jZT0iMTAiIGd1aWRldG9sZXJhbmNlPSIxMCIgaWQ9Im5hbWVkdmlldzU5ODkxIiBpbmtzY2FwZTpjdXJyZW50LWxheWVyPSJzdmc1OTg4OSIgaW5rc2NhcGU6Y3g9IjI5LjQ3MTgyNyIgaW5rc2NhcGU6Y3k9IjE2LjEyMDc3NSIgaW5rc2NhcGU6cGFnZW9wYWNpdHk9IjAiIGlua3NjYXBlOnBhZ2VzaGFkb3c9IjIiIGlua3NjYXBlOndpbmRvdy1oZWlnaHQ9IjEwMTciIGlua3NjYXBlOndpbmRvdy1tYXhpbWl6ZWQ9IjEiIGlua3NjYXBlOndpbmRvdy13aWR0aD0iMTkyMCIgaW5rc2NhcGU6d2luZG93LXg9Ii04IiBpbmtzY2FwZTp3aW5kb3cteT0iLTgiIGlua3NjYXBlOnpvb209IjE4LjA5MzIyNiIgb2JqZWN0dG9sZXJhbmNlPSIxMCIgcGFnZWNvbG9yPSIjZmZmZmZmIiBzaG93Z3JpZD0iZmFsc2UiPiYjeGE7CTwvc29kaXBvZGk6bmFtZWR2aWV3PiYjeGE7PGcgaWQ9Imc1OTg4NyI+JiN4YTsJPHRpdGxlIGlkPSJ0aXRsZTU5ODcyIj5QYWdlLTE8L3RpdGxlPiYjeGE7CTxnIGlkPSJncm91cDQ0MzMtMSI+JiN4YTsJCTx0aXRsZSBpZD0idGl0bGU1OTg3NCI+QXp1cmUgUG9ydGFsIC0gQVBJIE1hbmFnZW1lbnQgU2VydmljZXM8L3RpdGxlPiYjeGE7CQk8ZyBpZD0ic2hhcGU0NDM0LTIiPiYjeGE7CQkJPHRpdGxlIGlkPSJ0aXRsZTU5ODc2Ij5BUEkgTWFuYWdlbWVudDwvdGl0bGU+JiN4YTsJCQk8cGF0aCBpZD0icGF0aDU5ODc4IiBpbmtzY2FwZTpjb25uZWN0b3ItY3VydmF0dXJlPSIwIiBzdHlsZT0iZmlsbDojNTlCNEQ5OyIgZD0iTTI3LjExLDEwLjY1YzAuMS0wLjM5LDAuMS0wLjU4LDAuMS0xLjE1ICAgICBjMC01LjM4LTQuNDQtOS41LTkuODUtOS41Yy0zLjg1LDAtNy40MywyLjAxLTguODcsNS41N2MtMC40OSwwLTAuODYtMC4yLTEuNDUtMC4yYy0zLjg2LDAtNy4wNCwzLjA3LTcuMDQsNyAgICAgYzAsMy44NCwzLjE4LDYuOSw3LjA0LDYuOWgzLjU4YzAuMDksMC40OSwwLjM3LDAuOTgsMC44NiwxLjM1YzEuMjYsMS4zNSwzLjM4LDEuMjUsNC42MywwczEuMjUtMy4zNiwwLTQuNiAgICAgYy0xLjI1LTEuMzQtMy4zNy0xLjM0LTQuNjMsMGMtMC4yOSwwLjI4LTAuNDksMC44Ny0wLjY3LDEuMjRsLTMuNjcsMC4xYy0yLjcsMC00LjkyLTIuMi00LjkyLTQuOTljMC0yLjc4LDIuMTItNC45OCw0LjkyLTQuOTggICAgIGMwLjQ5LDAsMS4wNiwwLjA5LDEuNjUsMC4xOWwxLjA0LDAuMjlsMC4zLTEuMDVjMS4wNi0zLjE3LDMuOTUtNS4yOCw3LjQzLTUuMjhjNC4yNCwwLDcuNzEsMy40NSw3LjcxLDcuNjcgICAgIGMwLDAuNjgtMC4wOSwxLjM0LTAuMjgsMi4wMWwtMC4zOSwxLjU0bDEuNjMtMC4xOWgwLjNjMS4yNSwwLDIuMjIsMS4wNSwyLjIyLDIuMmMwLDEuMTYtMC44NywyLjAyLTEuOTMsMi4yMWgtNS41ICAgICBjLTAuMi0xLjU0LTAuOTctMi44Ny0yLjAzLTMuOTNjLTEuMzQtMS4zNC0zLjE4LTIuMTEtNS4xMS0yLjExYy0xLjM0LDAtMi43LDAuMzgtMy43NiwxLjA2bDEuMTYsMS44MiAgICAgYzAuODctMC40OSwxLjczLTAuNjgsMi43LTAuNjhjMS4zNSwwLDIuNywwLjQ4LDMuNTcsMS41NGMwLjk2LDAuOTYsMS41NCwyLjIxLDEuNTQsMy41NGMwLDEuMzUtMC40OCwyLjY5LTEuNTQsMy41NSAgICAgYy0wLjk2LDEuMDYtMi4yMiwxLjU0LTMuNTcsMS41NGMtMC45NywwLTEuOTMtMC4yOS0yLjctMC44N2wtMS4xNiwxLjgzYzEuMTYsMC42NywyLjUsMS4xNCwzLjc2LDEuMTRjMS45MywwLDMuNzctMC42Niw1LjExLTIuMSAgICAgYzEuMTYtMS4xNSwxLjgzLTIuNTksMi4wMy00LjIyYzAuMjksMCw1LjYtMC4wOSw1LjYtMC4wOWgwLjA5YzIuMjMtMC4yLDMuOTYtMi4xMSwzLjk2LTQuNDIgICAgIEMzMC41OCwxMi43NiwyOS4xNCwxMS4wNCwyNy4xMSwxMC42NXoiLz4mI3hhOwkJPC9nPiYjeGE7CQk8ZyBpZD0ic2hhcGU0NDM1LTQiIHRyYW5zZm9ybT0idHJhbnNsYXRlKDEwLjI5ODMsLTMuNTYwNikiPiYjeGE7CQkJPHRpdGxlIGlkPSJ0aXRsZTU5ODgxIj5TaGVldC40NDM1PC90aXRsZT4mI3hhOwkJCTxwYXRoIGlkPSJwYXRoNTk4ODMiIGlua3NjYXBlOmNvbm5lY3Rvci1jdXJ2YXR1cmU9IjAiIHN0eWxlPSJmaWxsOiM2ODIxN0E7IiBkPSJNMCwyMS45NmMwLTEuOTEsMS41NS0zLjQ2LDMuNDUtMy40NiAgICAgYzEuOTMsMCwzLjQ2LDEuNTUsMy40NiwzLjQ2YzAsMS45Mi0xLjUzLDMuNDUtMy40NiwzLjQ1QzEuNTUsMjUuNDEsMCwyMy44OCwwLDIxLjk2eiIvPiYjeGE7CQk8L2c+JiN4YTsJPC9nPiYjeGE7PC9nPiYjeGE7PC9zdmc+;" parent="1" vertex="1">
          <mxGeometry x="277.5" y="380.00000000000006" width="50" height="40.32" as="geometry" />
        </mxCell>
        <mxCell id="GvNoBDFtbwsnx0B9apl6-2121" value="" style="arrow;html=1;endArrow=block;endFill=1;strokeColor=none;strokeWidth=4;fontFamily=Helvetica;fontSize=36;fontColor=#FFB366;fillColor=#FFB366;exitX=0.242;exitY=0.756;exitDx=0;exitDy=0;exitPerimeter=0;" parent="1" edge="1" source="2021">
          <mxGeometry width="100" height="100" relative="1" as="geometry">
            <mxPoint x="427" y="520.55" as="sourcePoint" />
            <mxPoint x="349.9499999999998" y="520.47" as="targetPoint" />
          </mxGeometry>
        </mxCell>
        <mxCell id="GvNoBDFtbwsnx0B9apl6-2124" value="离线引擎" style="outlineConnect=0;dashed=0;verticalLabelPosition=bottom;verticalAlign=top;align=center;html=1;shape=mxgraph.aws3.elasticsearch_service;fillColor=#F58534;gradientColor=none;" parent="1" vertex="1">
          <mxGeometry x="610" y="541.5" width="50" height="65.5" as="geometry" />
        </mxCell>
        <mxCell id="ofMWnqgUn5bOHSSjI4Hi-2076" value="" style="group" vertex="1" connectable="0" parent="1">
          <mxGeometry x="650" y="199" width="147" height="180" as="geometry" />
        </mxCell>
        <mxCell id="2055" value="实时mysql" style="rounded=1;whiteSpace=wrap;html=1;dashed=1;strokeColor=none;strokeWidth=2;fillColor=#FFFFFF;fontFamily=Helvetica;fontSize=14;fontColor=#FFB366;opacity=75;verticalAlign=top;fontStyle=1" parent="ofMWnqgUn5bOHSSjI4Hi-2076" vertex="1">
          <mxGeometry width="147" height="180" as="geometry" />
        </mxCell>
        <mxCell id="GvNoBDFtbwsnx0B9apl6-2092" value="二手数据" style="verticalLabelPosition=bottom;html=1;verticalAlign=top;align=center;strokeColor=none;fillColor=#00BEF2;shape=mxgraph.azure.mysql_database;" parent="ofMWnqgUn5bOHSSjI4Hi-2076" vertex="1">
          <mxGeometry x="15.047244094488189" y="29" width="38.196850393700785" height="41" as="geometry" />
        </mxCell>
        <mxCell id="GvNoBDFtbwsnx0B9apl6-2093" value="商品数据" style="verticalLabelPosition=bottom;html=1;verticalAlign=top;align=center;strokeColor=none;fillColor=#00BEF2;shape=mxgraph.azure.mysql_database;" parent="ofMWnqgUn5bOHSSjI4Hi-2076" vertex="1">
          <mxGeometry x="84.49606299212599" y="29" width="38.196850393700785" height="41" as="geometry" />
        </mxCell>
        <mxCell id="GvNoBDFtbwsnx0B9apl6-2095" value="标签关系" style="verticalLabelPosition=bottom;html=1;verticalAlign=top;align=center;strokeColor=none;fillColor=#00BEF2;shape=mxgraph.azure.mysql_database;" parent="ofMWnqgUn5bOHSSjI4Hi-2076" vertex="1">
          <mxGeometry x="84.49606299212599" y="103" width="38.196850393700785" height="41" as="geometry" />
        </mxCell>
        <mxCell id="GvNoBDFtbwsnx0B9apl6-2096" value="点赞" style="verticalLabelPosition=bottom;html=1;verticalAlign=top;align=center;strokeColor=none;fillColor=#00BEF2;shape=mxgraph.azure.mysql_database;" parent="ofMWnqgUn5bOHSSjI4Hi-2076" vertex="1">
          <mxGeometry x="15.047244094488189" y="104" width="38.196850393700785" height="41" as="geometry" />
        </mxCell>
        <mxCell id="ofMWnqgUn5bOHSSjI4Hi-2077" value="" style="group" vertex="1" connectable="0" parent="1">
          <mxGeometry x="412.5" y="210" width="140" height="180" as="geometry" />
        </mxCell>
        <mxCell id="GvNoBDFtbwsnx0B9apl6-2113" value="二手关联服务" style="rounded=1;whiteSpace=wrap;html=1;dashed=1;strokeColor=none;strokeWidth=2;fillColor=#FFFFFF;fontFamily=Helvetica;fontSize=14;fontColor=#FFB366;opacity=75;verticalAlign=top;fontStyle=1" parent="ofMWnqgUn5bOHSSjI4Hi-2077" vertex="1">
          <mxGeometry width="140" height="180" as="geometry" />
        </mxCell>
        <mxCell id="GvNoBDFtbwsnx0B9apl6-2115" value="内容标签服务" style="aspect=fixed;perimeter=ellipsePerimeter;html=1;align=center;shadow=0;dashed=0;spacingTop=3;image;image=img/lib/active_directory/generic_server.svg;" parent="ofMWnqgUn5bOHSSjI4Hi-2077" vertex="1">
          <mxGeometry x="6.100000000000023" y="97" width="39.2" height="70" as="geometry" />
        </mxCell>
        <mxCell id="GvNoBDFtbwsnx0B9apl6-2116" value="商品服务" style="aspect=fixed;perimeter=ellipsePerimeter;html=1;align=center;shadow=0;dashed=0;spacingTop=3;image;image=img/lib/active_directory/generic_server.svg;" parent="ofMWnqgUn5bOHSSjI4Hi-2077" vertex="1">
          <mxGeometry x="48.30000000000001" y="19" width="39.2" height="70" as="geometry" />
        </mxCell>
        <mxCell id="GvNoBDFtbwsnx0B9apl6-2117" value="点赞服务" style="aspect=fixed;perimeter=ellipsePerimeter;html=1;align=center;shadow=0;dashed=0;spacingTop=3;image;image=img/lib/active_directory/generic_server.svg;" parent="ofMWnqgUn5bOHSSjI4Hi-2077" vertex="1">
          <mxGeometry x="87.5" y="94.50000000000006" width="39.2" height="70" as="geometry" />
        </mxCell>
        <mxCell id="ofMWnqgUn5bOHSSjI4Hi-2078" value="" style="arrow;html=1;endArrow=block;endFill=1;strokeColor=none;strokeWidth=4;fontFamily=Helvetica;fontSize=36;fontColor=#FFB366;fillColor=#FFB366;" edge="1" parent="1">
          <mxGeometry width="100" height="100" relative="1" as="geometry">
            <mxPoint x="529.9999999999995" y="288.94000000000005" as="sourcePoint" />
            <mxPoint x="650" y="288" as="targetPoint" />
          </mxGeometry>
        </mxCell>
        <mxCell id="ofMWnqgUn5bOHSSjI4Hi-2080" value="" style="arrow;html=1;endArrow=block;endFill=1;strokeColor=none;strokeWidth=4;fontFamily=Helvetica;fontSize=36;fontColor=#FFB366;fillColor=#FFB366;" edge="1" parent="1">
          <mxGeometry width="100" height="100" relative="1" as="geometry">
            <mxPoint x="770" y="380" as="sourcePoint" />
            <mxPoint x="769" y="530" as="targetPoint" />
          </mxGeometry>
        </mxCell>
        <mxCell id="ofMWnqgUn5bOHSSjI4Hi-2081" value="t+1同步" style="edgeLabel;html=1;align=center;verticalAlign=middle;resizable=0;points=[];" vertex="1" connectable="0" parent="ofMWnqgUn5bOHSSjI4Hi-2080">
          <mxGeometry x="-0.2947" y="-1" relative="1" as="geometry">
            <mxPoint as="offset" />
          </mxGeometry>
        </mxCell>
        <mxCell id="ofMWnqgUn5bOHSSjI4Hi-2082" value="" style="arrow;html=1;endArrow=block;endFill=1;strokeColor=none;strokeWidth=4;fontFamily=Helvetica;fontSize=36;fontColor=#FFB366;fillColor=#FFB366;" edge="1" parent="1">
          <mxGeometry width="100" height="100" relative="1" as="geometry">
            <mxPoint x="737.0499999999997" y="575.05" as="sourcePoint" />
            <mxPoint x="659.9999999999998" y="574.97" as="targetPoint" />
          </mxGeometry>
        </mxCell>
        <mxCell id="ofMWnqgUn5bOHSSjI4Hi-2083" value="" style="arrow;html=1;endArrow=block;endFill=1;strokeColor=none;strokeWidth=4;fontFamily=Helvetica;fontSize=36;fontColor=#FFB366;fillColor=#FFB366;entryX=0.5;entryY=0;entryDx=0;entryDy=0;entryPerimeter=0;" edge="1" parent="1" target="GvNoBDFtbwsnx0B9apl6-2098">
          <mxGeometry width="100" height="100" relative="1" as="geometry">
            <mxPoint x="685" y="380" as="sourcePoint" />
            <mxPoint x="606.9999999999998" y="440.5" as="targetPoint" />
          </mxGeometry>
        </mxCell>
        <mxCell id="ofMWnqgUn5bOHSSjI4Hi-2084" value="实时同步" style="edgeLabel;html=1;align=center;verticalAlign=middle;resizable=0;points=[];" vertex="1" connectable="0" parent="ofMWnqgUn5bOHSSjI4Hi-2083">
          <mxGeometry x="0.0753" relative="1" as="geometry">
            <mxPoint as="offset" />
          </mxGeometry>
        </mxCell>
        <mxCell id="ofMWnqgUn5bOHSSjI4Hi-2085" value="" style="arrow;html=1;endArrow=block;endFill=1;strokeColor=none;strokeWidth=4;fontFamily=Helvetica;fontSize=36;fontColor=#FFB366;fillColor=#FFB366;exitX=0.25;exitY=0.707;exitDx=0;exitDy=0;exitPerimeter=0;entryX=0.667;entryY=0.707;entryDx=0;entryDy=0;entryPerimeter=0;" edge="1" parent="1" source="2022" target="2021">
          <mxGeometry width="100" height="100" relative="1" as="geometry">
            <mxPoint x="607.05" y="495.0299999999999" as="sourcePoint" />
            <mxPoint x="530" y="494.95" as="targetPoint" />
          </mxGeometry>
        </mxCell>
        <mxCell id="ofMWnqgUn5bOHSSjI4Hi-2086" value="" style="arrow;html=1;endArrow=block;endFill=1;strokeColor=none;strokeWidth=4;fontFamily=Helvetica;fontSize=36;fontColor=#FFB366;fillColor=#FFB366;exitX=-0.053;exitY=0.039;exitDx=0;exitDy=0;exitPerimeter=0;" edge="1" parent="1" source="GvNoBDFtbwsnx0B9apl6-2104">
          <mxGeometry width="100" height="100" relative="1" as="geometry">
            <mxPoint x="437.05" y="420.4" as="sourcePoint" />
            <mxPoint x="359.99999999999983" y="420.32000000000005" as="targetPoint" />
          </mxGeometry>
        </mxCell>
        <mxCell id="ofMWnqgUn5bOHSSjI4Hi-2087" value="" style="arrow;html=1;endArrow=block;endFill=1;strokeColor=none;strokeWidth=4;fontFamily=Helvetica;fontSize=36;fontColor=#FFB366;fillColor=#FFB366;" edge="1" parent="1">
          <mxGeometry width="100" height="100" relative="1" as="geometry">
            <mxPoint x="347" y="279.63" as="sourcePoint" />
            <mxPoint x="427" y="279.63" as="targetPoint" />
          </mxGeometry>
        </mxCell>
      </root>
    </mxGraphModel>
  </diagram>
</mxfile>
